<svg width="27" height="31" viewBox="0 0 27 31" fill="none" xmlns="http://www.w3.org/2000/svg">
<path fill-rule="evenodd" clip-rule="evenodd" d="M25.8153 10.5659C24.2688 8.63879 22.0991 7.52393 20.0508 7.52393C17.3411 7.52393 16.1962 8.81129 14.3164 8.81129C12.3788 8.81129 10.9054 7.5258 8.56167 7.5258C6.25956 7.5258 3.81195 8.92417 2.26021 11.314C0.0765979 14.6748 0.446345 20.998 3.98707 26.3863C5.25344 28.313 6.94468 30.4798 9.15604 30.5004C11.1214 30.5184 11.6775 29.2468 14.3441 29.2318C17.0111 29.2172 17.5155 30.5143 19.4805 30.4959C21.6918 30.4749 23.4761 28.0757 24.7417 26.1486C25.6488 24.7682 25.9867 24.0707 26.6913 22.5103C21.5722 20.5761 20.7491 13.3428 25.8153 10.5659Z" fill="black"/>
<path fill-rule="evenodd" clip-rule="evenodd" d="M17.9954 5.37047C18.9798 4.10748 19.7275 2.32324 19.456 0.5C17.848 0.610999 15.9671 1.63362 14.8691 2.96748C13.8723 4.17798 13.0492 5.97309 13.3694 7.71795C15.1248 7.77233 16.9413 6.72346 17.9954 5.37047Z" fill="black"/>
</svg>
