<svg width="21" height="21" viewBox="0 0 21 21" fill="none" xmlns="http://www.w3.org/2000/svg">
<path d="M13.6651 8.12469H7.33328C6.89561 8.12469 6.5418 8.47832 6.5418 8.91636C6.5418 9.35403 6.89561 9.70765 7.33328 9.70765H13.6651C14.1021 9.70765 14.4566 9.35403 14.4566 8.91636C14.4566 8.77265 14.4186 8.63804 14.352 8.52198C14.2156 8.28441 13.9593 8.12469 13.6651 8.12469Z" fill="#B3B3B3"/>
<path d="M7.33328 11.2906H13.6651C14.1028 11.2906 14.4566 11.6442 14.4566 12.0823C14.4566 12.5199 14.1021 12.8736 13.6651 12.8736H7.33328C6.89561 12.8736 6.5418 12.5199 6.5418 12.0823C6.5418 11.6442 6.89561 11.2906 7.33328 11.2906Z" fill="#B3B3B3"/>
<path fill-rule="evenodd" clip-rule="evenodd" d="M19.8112 8.62494C19.3103 6.13717 17.8714 3.99393 15.7589 2.5896C13.7406 1.24821 11.3147 0.731231 8.9237 1.13252L8.87622 1.1398C3.71568 2.0366 0.247421 6.96412 1.14423 12.123C1.21535 12.5363 1.31595 12.9485 1.44019 13.3444C1.96336 15.0437 1.83438 16.865 1.07765 18.4731C1.02417 18.5858 0.999428 18.7074 1.00216 18.8278C1.00634 19.0042 1.06964 19.1785 1.1877 19.3193C1.38635 19.5558 1.70141 19.6533 2.0021 19.5732L5.54949 18.6044C7.05187 19.5241 8.74797 20 10.4797 20C11.109 20 11.7429 19.9374 12.3745 19.8101C14.8621 19.3091 17.0055 17.8702 18.4096 15.7575C19.8136 13.6452 20.3115 11.1123 19.8112 8.62494ZM17.091 14.8807C15.9204 16.6416 14.1341 17.8415 12.062 18.2588C9.99131 18.6735 7.879 18.2602 6.11795 17.0898C5.98643 17.0025 5.83381 16.9574 5.67937 16.9574C5.66245 16.9574 5.64554 16.9578 5.62862 16.9592L5.60843 16.9607C5.5624 16.9647 5.51638 16.9731 5.47127 16.9851L3.0548 17.6447C3.46319 16.0875 3.43317 14.4391 2.95203 12.8729C2.89727 12.6993 2.84834 12.5236 2.80559 12.3464C2.76612 12.1827 2.73192 12.0179 2.70336 11.8523C1.95863 7.56405 4.83095 3.46894 9.11052 2.70602L9.1418 2.70202L9.15326 2.69984C11.1564 2.35385 13.1905 2.78352 14.8828 3.90771C16.6439 5.0781 17.843 6.86444 18.2599 8.93673C18.677 11.0094 18.2616 13.1202 17.091 14.8807Z" fill="#B3B3B3"/>
<path d="M13.6651 8.12469H7.33328C6.89561 8.12469 6.5418 8.47832 6.5418 8.91636C6.5418 9.35403 6.89561 9.70765 7.33328 9.70765H13.6651C14.1021 9.70765 14.4566 9.35403 14.4566 8.91636C14.4566 8.77265 14.4186 8.63804 14.352 8.52198C14.2156 8.28441 13.9593 8.12469 13.6651 8.12469Z" stroke="#B3B3B3" stroke-width="0.5"/>
<path d="M7.33328 11.2906H13.6651C14.1028 11.2906 14.4566 11.6442 14.4566 12.0823C14.4566 12.5199 14.1021 12.8736 13.6651 12.8736H7.33328C6.89561 12.8736 6.5418 12.5199 6.5418 12.0823C6.5418 11.6442 6.89561 11.2906 7.33328 11.2906Z" stroke="#B3B3B3" stroke-width="0.5"/>
<path fill-rule="evenodd" clip-rule="evenodd" d="M19.8112 8.62494C19.3103 6.13717 17.8714 3.99393 15.7589 2.5896C13.7406 1.24821 11.3147 0.731231 8.9237 1.13252L8.87622 1.1398C3.71568 2.0366 0.247421 6.96412 1.14423 12.123C1.21535 12.5363 1.31595 12.9485 1.44019 13.3444C1.96336 15.0437 1.83438 16.865 1.07765 18.4731C1.02417 18.5858 0.999428 18.7074 1.00216 18.8278C1.00634 19.0042 1.06964 19.1785 1.1877 19.3193C1.38635 19.5558 1.70141 19.6533 2.0021 19.5732L5.54949 18.6044C7.05187 19.5241 8.74797 20 10.4797 20C11.109 20 11.7429 19.9374 12.3745 19.8101C14.8621 19.3091 17.0055 17.8702 18.4096 15.7575C19.8136 13.6452 20.3115 11.1123 19.8112 8.62494ZM17.091 14.8807C15.9204 16.6416 14.1341 17.8415 12.062 18.2588C9.99131 18.6735 7.879 18.2602 6.11795 17.0898C5.98643 17.0025 5.83381 16.9574 5.67937 16.9574C5.66245 16.9574 5.64554 16.9578 5.62862 16.9592L5.60843 16.9607C5.5624 16.9647 5.51638 16.9731 5.47127 16.9851L3.0548 17.6447C3.46319 16.0875 3.43317 14.4391 2.95203 12.8729C2.89727 12.6993 2.84834 12.5236 2.80559 12.3464C2.76612 12.1827 2.73192 12.0179 2.70336 11.8523C1.95863 7.56405 4.83095 3.46894 9.11052 2.70602L9.1418 2.70202L9.15326 2.69984C11.1564 2.35385 13.1905 2.78352 14.8828 3.90771C16.6439 5.0781 17.843 6.86444 18.2599 8.93673C18.677 11.0094 18.2616 13.1202 17.091 14.8807Z" stroke="#B3B3B3" stroke-width="0.5"/>
</svg>
