<svg width="30" height="30" viewBox="0 0 30 30" fill="none" xmlns="http://www.w3.org/2000/svg">
<path fill-rule="evenodd" clip-rule="evenodd" d="M5 0C2.23858 0 0 2.23858 0 5V25C0 27.7614 2.23858 30 5 30H25C27.7614 30 30 27.7614 30 25V5C30 2.23858 27.7614 0 25 0H5ZM20.6985 18.3823V29.9995H16.0233V18.3823H12.1138V13.8549H16.0233V10.5159C16.0233 6.64115 18.3897 4.53125 21.8464 4.53125C23.5019 4.53125 24.925 4.65453 25.3398 4.70972V8.75901L22.9424 8.76007C21.0626 8.76007 20.6985 9.65336 20.6985 10.9642V13.8549H25.1819L24.5981 18.3823H20.6985Z" fill="#2672D8"/>
</svg>
