<svg width="30" height="30" viewBox="0 0 30 30" fill="none" xmlns="http://www.w3.org/2000/svg">
<path d="M29.7077 12.062H28.4995V11.9998H14.9997V17.9997H23.4768C22.2401 21.4924 18.9169 23.9996 14.9997 23.9996C10.0296 23.9996 5.9999 19.9699 5.9999 14.9997C5.9999 10.0296 10.0296 5.9999 14.9997 5.9999C17.294 5.9999 19.3812 6.86538 20.9704 8.27911L25.2131 4.03643C22.5341 1.53972 18.9507 0 14.9997 0C6.71613 0 0 6.71613 0 14.9997C0 23.2833 6.71613 29.9995 14.9997 29.9995C23.2833 29.9995 29.9995 23.2833 29.9995 14.9997C29.9995 13.994 29.896 13.0123 29.7077 12.062Z" fill="#FFC107"/>
<path d="M1.72958 8.01811L6.65775 11.6323C7.99123 8.33086 11.2207 5.9999 14.9999 5.9999C17.2941 5.9999 19.3813 6.86538 20.9705 8.27911L25.2132 4.03643C22.5342 1.53972 18.9508 0 14.9999 0C9.23845 0 4.24204 3.25269 1.72958 8.01811Z" fill="#FF3D00"/>
<path d="M14.9996 29.9999C18.874 29.9999 22.3945 28.5172 25.0562 26.106L20.4138 22.1776C18.8572 23.3613 16.9552 24.0016 14.9996 24C11.0982 24 7.78548 21.5123 6.5375 18.0406L1.64609 21.8093C4.12855 26.667 9.16996 29.9999 14.9996 29.9999Z" fill="#4CAF50"/>
<path d="M29.7077 12.062H28.4995V11.9998H14.9997V17.9997H23.4768C22.8853 19.6619 21.8196 21.1145 20.4116 22.1778L20.4139 22.1763L25.0563 26.1048C24.7278 26.4033 29.9995 22.4996 29.9995 14.9997C29.9995 13.994 29.896 13.0122 29.7077 12.062Z" fill="#1976D2"/>
</svg>
